<svg width="336" height="64" viewBox="0 0 336 64" fill="none" xmlns="http://www.w3.org/2000/svg">
<path fill-rule="evenodd" clip-rule="evenodd" d="M183.785 17C181.888 17 180.314 18.5832 180.314 20.4506C180.314 22.3586 181.888 23.9418 183.785 23.9418C185.682 23.9418 187.257 22.3586 187.257 20.4506C187.257 18.5832 185.682 17 183.785 17ZM114.641 39.0839L109.151 36.567C108.263 39.368 105.639 41.1542 102.249 41.1542C97.4453 41.1542 94.1354 37.3789 94.1354 32.3856C94.1354 27.3518 97.4453 23.617 102.249 23.617C105.437 23.617 107.94 25.2409 108.99 27.7172L114.318 25.1597C112.945 20.816 107.98 17.7713 102.249 17.7713C94.1354 17.7713 88 24.1448 88 32.3856C88 40.5859 94.1354 47 102.249 47C108.142 47 113.268 43.7523 114.641 39.0839ZM129.616 26.6617V29.0162C128.647 27.3924 126.266 26.2557 123.763 26.2557C118.596 26.2557 114.52 30.843 114.52 36.6076C114.52 42.3721 118.596 47 123.763 47C126.266 47 128.647 45.8633 129.616 44.2395V46.594H135.307V26.6617H129.616ZM120.09 36.6075C120.09 39.4492 122.229 41.5602 125.014 41.5602C126.992 41.5602 128.768 40.5047 129.616 39.0839V34.2124C128.768 32.751 126.992 31.6549 125.014 31.6549C122.229 31.6549 120.09 33.7659 120.09 36.6075ZM151.534 18.1772V29.0162C150.565 27.3924 148.184 26.2557 145.681 26.2557C140.514 26.2557 136.438 30.843 136.438 36.6076C136.438 42.3721 140.514 47 145.681 47C148.184 47 150.565 45.8633 151.534 44.2395V46.594H157.225V18.1772H151.534ZM142.008 36.6075C142.008 39.4492 144.147 41.5602 146.932 41.5602C148.91 41.5602 150.686 40.5047 151.534 39.0839V34.2124C150.686 32.751 148.91 31.6549 146.932 31.6549C144.147 31.6549 142.008 33.7659 142.008 36.6075ZM173.25 18.1772V29.0162C172.281 27.3924 169.9 26.2557 167.397 26.2557C162.23 26.2557 158.154 30.843 158.154 36.6076C158.154 42.3721 162.23 47 167.397 47C169.9 47 172.281 45.8633 173.25 44.2395V46.594H178.941V18.1772H173.25ZM163.724 36.6075C163.724 39.4492 165.863 41.5602 168.648 41.5602C170.626 41.5602 172.402 40.5047 173.25 39.0839V34.2124C172.402 32.751 170.626 31.6549 168.648 31.6549C165.863 31.6549 163.724 33.7659 163.724 36.6075ZM180.919 46.594V26.6617H186.611V46.594H180.919ZM207.641 35.7551C207.641 30.4371 203.443 26.2557 198.074 26.2557C192.302 26.2557 187.781 30.7212 187.781 36.5264C187.781 42.4533 192.383 47 198.195 47C202.312 47 205.622 45.4574 207.076 42.8187L202.635 40.0988C201.949 41.3166 200.092 42.1285 198.316 42.1285C195.612 42.1285 193.755 40.7077 193.23 37.9878H207.479C207.6 37.2165 207.641 36.4452 207.641 35.7551ZM197.792 30.8836C195.41 30.8836 193.836 32.1827 193.311 34.3342H201.949C201.707 32.345 199.891 30.8836 197.792 30.8836ZM225.159 17.7713C219.346 17.7713 215.27 21.5061 215.27 26.3369C215.27 32.4107 220.321 33.7622 224.425 34.8603C227.234 35.6118 229.599 36.2446 229.599 38.1908C229.599 40.0176 227.863 41.1542 225.32 41.1542C221.97 41.1542 219.589 39.4492 217.449 37.2165L213.615 41.6008C216.036 44.686 220.961 47 225.32 47C231.94 47 235.734 42.6563 235.734 38.1502C235.734 31.9998 230.633 30.5354 226.493 29.3466C223.664 28.5345 221.284 27.8511 221.284 25.8904C221.284 24.5101 222.656 23.5764 224.674 23.5764C226.975 23.5764 229.72 24.7943 231.819 26.8647L235.29 22.115C233.151 19.6387 228.792 17.7713 225.159 17.7713ZM246.391 26.2557C251.759 26.2557 255.957 30.4371 255.957 35.7551C255.957 36.4452 255.917 37.2165 255.796 37.9878H241.547C242.072 40.7077 243.928 42.1285 246.633 42.1285C248.409 42.1285 250.266 41.3166 250.952 40.0988L255.392 42.8187C253.939 45.4574 250.629 47 246.512 47C240.699 47 236.098 42.4533 236.098 36.5264C236.098 30.7212 240.618 26.2557 246.391 26.2557ZM241.628 34.3342C242.152 32.1827 243.727 30.8836 246.108 30.8836C248.207 30.8836 250.023 32.345 250.266 34.3342H241.628ZM262.819 29.0162C263.788 27.3112 265.927 26.2557 267.582 26.2557C268.591 26.2557 269.398 26.3775 270.004 26.6211L270.001 26.6617H269.035L269.878 28.7031L269.681 31.9797C268.914 31.6955 267.945 31.5331 267.138 31.5331C265.846 31.5331 263.788 32.5886 262.819 34.5372V46.594H257.128V26.6617H262.819V29.0162ZM269.878 28.7031L277.27 46.594H282.113L290.307 26.6617H284.091L279.691 38.7997L275.211 26.6617H270.001L269.878 28.7031ZM290.025 20.4506C290.025 18.5832 291.599 17 293.496 17C295.393 17 296.967 18.5832 296.967 20.4506C296.967 22.3586 295.393 23.9418 293.496 23.9418C291.599 23.9418 290.025 22.3586 290.025 20.4506ZM290.63 26.6617V46.594H296.322V26.6617H290.63ZM312.185 39.0027L317.227 41.2747L317.229 41.2785C315.735 44.7277 312.143 47 307.906 47C301.973 47 297.492 42.5751 297.492 36.6482C297.492 30.7212 301.973 26.2557 307.906 26.2557C311.781 26.2557 315.051 28.2043 316.625 31.1678L311.822 33.9283C311.095 32.5886 309.642 31.7361 307.906 31.7361C305.081 31.7361 303.062 33.8471 303.062 36.6482C303.062 39.4086 305.081 41.5196 307.906 41.5196C309.844 41.5196 311.418 40.5859 312.185 39.0027ZM317.229 41.2785C318.926 44.7174 322.436 47 326.555 47C330.672 47 333.982 45.4574 335.435 42.8187L330.995 40.0988C330.309 41.3166 328.452 42.1285 326.676 42.1285C323.971 42.1285 322.115 40.7077 321.59 37.9878H335.839C335.96 37.2165 336 36.4452 336 35.7551C336 30.4371 331.802 26.2557 326.434 26.2557C320.661 26.2557 316.141 30.7212 316.141 36.5264C316.141 38.2522 316.531 39.8611 317.227 41.2747L317.23 41.276L317.229 41.2785ZM326.151 30.8836C323.77 30.8836 322.195 32.1827 321.671 34.3342H330.309C330.066 32.345 328.25 30.8836 326.151 30.8836Z" fill="#F9F8F7"/>
<path fill-rule="evenodd" clip-rule="evenodd" d="M64 32C64 49.6731 49.6731 64 32 64C14.3269 64 0 49.6731 0 32C0 14.3269 14.3269 0 32 0C49.6731 0 64 14.3269 64 32ZM60.4648 32C60.4648 47.7207 47.7206 60.4648 32 60.4648C31.5575 60.4648 31.1173 60.4547 30.6797 60.4347C30.6764 60.2476 30.6421 60.0579 30.5735 59.8725L24.7935 44.2408L34.1415 40.897L33.5242 42.128C33.1039 42.966 33.4695 43.973 34.3407 44.3773C34.8947 44.6343 35.5197 44.5858 36.0095 44.3009L50.7984 38.9513C51.689 38.6292 52.1474 37.6438 51.8201 36.7551L43.5622 14.3309C43.238 13.4504 42.264 12.9964 41.3811 13.3142L31.7696 16.7743L31.08 14.9005C30.756 14.0201 29.7824 13.5659 28.8995 13.8832L13.7742 19.3196C13.2877 19.4945 12.9298 19.867 12.7577 20.3139C12.6137 20.6878 12.6 21.1138 12.7499 21.5192L12.7504 21.5204L26.9881 60.025C13.6576 57.657 3.53521 46.0106 3.53521 32C3.53521 16.2794 16.2793 3.53524 32 3.53524C47.7206 3.53524 60.4648 16.2794 60.4648 32ZM48.0212 36.3236L38.6189 39.7246L39.073 38.8193C39.3973 38.3737 39.5006 37.7795 39.2957 37.2229L32.9495 19.9799L40.9428 17.1023L48.0212 36.3236ZM28.8815 17.9173L17.1124 22.201L23.7325 40.3897L35.5017 36.1061L28.8815 17.9173Z" fill="white"/>
</svg>
