<svg width="20" height="16" viewBox="0 0 20 16" fill="none" xmlns="http://www.w3.org/2000/svg">
<path fill-rule="evenodd" clip-rule="evenodd" d="M13.2849 1.3015L13.5581 0.549614L12.0544 0.00309753L11.7811 0.754982L6.7136 14.6985L6.44034 15.4504L7.94411 15.9969L8.21737 15.245L13.2849 1.3015ZM6.06306 4.1969L5.49753 4.76274L2.2621 7.99999L5.49753 11.2372L6.06306 11.8031L4.93137 12.9341L4.36584 12.3683L0.565207 8.56552L0 7.99999L0.565207 7.43447L4.36584 3.63169L4.93137 3.06585L6.06306 4.1969ZM15.067 3.06585L15.6325 3.63169L19.4331 7.43447L19.9983 7.99999L19.4331 8.56552L15.6325 12.3683L15.067 12.9341L13.9353 11.8031L14.5008 11.2372L17.7362 7.99999L14.5008 4.76274L13.9353 4.1969L15.067 3.06585Z" fill="white"/>
</svg>
